<svg width="45" height="45" viewBox="0 0 45 45" fill="none" xmlns="http://www.w3.org/2000/svg">
<path fill-rule="evenodd" clip-rule="evenodd" d="M44.4398 27.0601C42.8974 34.4814 37.849 40.2763 31.384 43.0745L37.7374 12.5064L7.16961 6.15306C12.3122 1.33865 19.6387 -0.982394 27.0599 0.560056C39.177 3.07851 46.9583 14.943 44.4398 27.0601ZM21.2819 44.8788C23.9079 45.025 26.4817 44.7037 28.9075 43.9777L31.6674 30.6993C33.5562 21.6115 27.7203 12.7131 18.6324 10.8243L5.35442 8.06456C3.72164 10.0004 2.40131 12.2332 1.48895 14.7004L26.4749 19.8935L21.2819 44.8788ZM19.0425 44.641C18.6753 44.5834 18.3077 44.5164 17.9398 44.4399C5.82273 41.9215 -1.95851 30.057 0.559939 17.9399C0.636359 17.5723 0.721385 17.2086 0.814763 16.849L7.3699 18.2115C16.4577 20.1003 22.2937 28.9986 20.4048 38.0865L19.0425 44.641Z" fill="#5329FF"/>
</svg>
